<?xml version="1.0" encoding="utf-8"?>
<!-- Generator: Adobe Illustrator 22.0.1, SVG Export Plug-In . SVG Version: 6.00 Build 0)  -->
<svg version="1.1" id="Layer_1" xmlns="http://www.w3.org/2000/svg" xmlns:xlink="http://www.w3.org/1999/xlink" x="0px" y="0px"
	 viewBox="0 0 24 24" style="enable-background:new 0 0 24 24;" xml:space="preserve">
<g transform="translate(1 1)">
	<g>
		<g>
			<path d="M14.6,16H7.4C7.2,16,7,16.2,7,16.4v2.4c0,0.2,0.2,0.4,0.4,0.4h7.2c0.2,0,0.4-0.2,0.4-0.4v-2.4C15,16.2,14.8,16,14.6,16z
				 M14.2,18.4H7.8v-1.6h6.4L14.2,18.4L14.2,18.4z"/>
			<path d="M14.8,8.8L12.9,10c-0.7,0.4-1.4,0.8-2.1,1.1c-0.2,0.1-0.4,0.2-0.7,0.3c-0.8,0.4-1.3,1.4-1.1,2.3c0.2,0.7,0.8,1.3,1.5,1.5
				c0.2,0,0.3,0,0.5,0c0.8,0,1.4-0.4,1.8-1.1c0.1-0.2,0.2-0.4,0.3-0.7c0.4-0.7,0.7-1.4,1.1-2.1l1.2-1.9c0.1-0.2,0-0.3-0.1-0.5
				C15.2,8.8,15,8.8,14.8,8.8z M13.5,10.9c-0.4,0.7-0.8,1.4-1.1,2.2c-0.1,0.2-0.2,0.4-0.3,0.7c-0.2,0.5-0.8,0.8-1.4,0.6
				c-0.4-0.1-0.8-0.4-0.9-0.9c-0.1-0.6,0.1-1.1,0.6-1.4c0.2-0.1,0.4-0.2,0.7-0.3c0.7-0.4,1.5-0.7,2.2-1.1l0.5-0.3L13.5,10.9z"/>
			<path d="M22.1,8.8C22.1,8.7,22.1,8.7,22.1,8.8c0-0.1,0-0.1-0.1-0.2c-0.6-1.4-1.5-2.7-2.5-3.8c0,0,0,0-0.1-0.1s0,0-0.1-0.1
				c-2.2-2.1-5.1-3.5-8.4-3.5c-1.6,0-3.1,0.3-4.4,0.9c0,0-0.1,0-0.1,0c0,0-0.1,0-0.1,0C5,2.7,3.7,3.6,2.6,4.7c0,0,0,0-0.1,0.1
				c0,0,0,0-0.1,0.1C0.3,7-1,9.9-1,13.2c0,2.7,0.9,5.3,2.6,7.4c0.1,0.1,0.2,0.2,0.3,0.2h18.2c0.1,0,0.2,0,0.3-0.2
				c1.7-2.1,2.6-4.7,2.6-7.4C23,11.6,22.7,10.1,22.1,8.8z M19.9,20H2.1c-0.5-0.7-1-1.4-1.3-2.2l1.1-0.4c0.2-0.1,0.3-0.3,0.2-0.5
				c-0.1-0.2-0.3-0.3-0.5-0.2L0.5,17c-0.4-1.1-0.6-2.3-0.7-3.4h2.8c0.2,0,0.4-0.2,0.4-0.4s-0.2-0.4-0.4-0.4h-2.8
				c0-1.3,0.3-2.5,0.7-3.6l1.1,0.5c0,0,0.1,0,0.2,0c0.2,0,0.3-0.1,0.4-0.2C2.2,9.3,2.2,9,2,9L0.9,8.5c0.5-1.1,1.2-2,2-2.9l0.8,0.8
				c0.1,0.1,0.2,0.1,0.3,0.1s0.2,0,0.3-0.1c0.2-0.2,0.2-0.4,0-0.6L3.4,5c0.9-0.8,1.9-1.5,3.1-2l0.4,1.1c0,0.2,0.2,0.2,0.4,0.2
				c0,0,0.1,0,0.2,0C7.6,4.2,7.7,4,7.6,3.8L7.2,2.7C8.2,2.3,9.4,2.1,10.6,2v2.8c0,0.2,0.2,0.4,0.4,0.4s0.4-0.2,0.4-0.4V2
				c1.3,0,2.5,0.3,3.6,0.7l-0.5,1.1c-0.1,0.2,0,0.4,0.2,0.5c0,0,0.1,0,0.2,0c0.2,0,0.3-0.1,0.4-0.2L15.7,3c1.1,0.5,2,1.2,2.9,2
				l-0.8,0.8c-0.2,0.2-0.2,0.4,0,0.6c0.1,0.1,0.2,0.1,0.3,0.1c0.1,0,0.2,0,0.3-0.1l0.8-0.8c0.8,0.9,1.5,1.9,2,3.1l-1.1,0.4
				c-0.2,0.1-0.3,0.3-0.2,0.5c0,0.2,0.2,0.2,0.4,0.2c0,0,0.1,0,0.2,0l1.1-0.4c0.4,1.1,0.6,2.2,0.7,3.4h-2.8c-0.2,0-0.4,0.2-0.4,0.4
				s0.2,0.4,0.4,0.4h2.8c0,1.2-0.3,2.5-0.7,3.6l-1.1-0.5c-0.2-0.1-0.4,0-0.5,0.2c-0.1,0.2,0,0.4,0.2,0.5l1.1,0.5
				C20.8,18.7,20.4,19.3,19.9,20z"/>
		</g>
	</g>
</g>
</svg>
