<?xml version="1.0" encoding="utf-8"?>
<!-- Generator: Adobe Illustrator 22.0.1, SVG Export Plug-In . SVG Version: 6.00 Build 0)  -->
<svg version="1.1" id="Calque_1" xmlns="http://www.w3.org/2000/svg" xmlns:xlink="http://www.w3.org/1999/xlink" x="0px" y="0px"
	 viewBox="0 0 24 24" style="enable-background:new 0 0 24 24;" xml:space="preserve">
<path d="M9.6,12.3c1.9,0,3.5-1.6,3.5-3.5s-1.6-3.5-3.5-3.5S6.1,6.9,6.1,8.8C6.1,10.8,7.7,12.3,9.6,12.3z M9.6,6.4
	c1.4,0,2.5,1.1,2.5,2.5s-1.1,2.5-2.5,2.5s-2.5-1.1-2.5-2.5C7.2,7.5,8.3,6.4,9.6,6.4z"/>
<path d="M21.4,2.5H2.6C1.2,2.5,0,3.6,0,5v13.9c0,1.4,1.2,2.6,2.6,2.6h18.8c1.4,0,2.6-1.2,2.6-2.6V5C24,3.6,22.8,2.5,21.4,2.5z
	 M2.6,3.5h18.8C22.3,3.5,23,4.2,23,5v10.2l-3.1-4.4c-0.5-0.7-1.3-1.1-2.1-1.1c-0.8,0-1.6,0.4-2.1,1.1l-3.5,4.8
	c-0.5,0.7-1.4,0.8-2.1,0.4l-2.6-1.8c-0.9-0.6-2-0.6-2.9,0L1,16.6V5C1,4.2,1.7,3.5,2.6,3.5z M21.4,20.5H2.6c-0.9,0-1.5-0.7-1.5-1.5
	v-1.1L5.2,15c0.5-0.3,1.2-0.3,1.7,0l2.6,1.8c1.1,0.8,2.7,0.5,3.5-0.6l3.5-4.8c0.3-0.4,0.8-0.6,1.3-0.6s1,0.2,1.2,0.7L23,17v2
	C23,19.8,22.3,20.5,21.4,20.5z"/>
</svg>
