<?xml version="1.0" encoding="utf-8"?>
<!-- Generator: Adobe Illustrator 22.0.1, SVG Export Plug-In . SVG Version: 6.00 Build 0)  -->
<svg version="1.1" id="Capa_1" xmlns="http://www.w3.org/2000/svg" xmlns:xlink="http://www.w3.org/1999/xlink" x="0px" y="0px"
	 viewBox="0 0 24 24" style="enable-background:new 0 0 24 24;" xml:space="preserve">
<g>
	<g>
		<path d="M10.4,8.8H7.8L5.5,6.5C5.4,6.4,5.3,6.4,5.2,6.4H0.4C0.2,6.4,0,6.6,0,6.8v8.4c0,1.1,0.9,2,2,2h2.4c0.2,0,0.4,0.2,0.4,0.4
			V22c0,0.7,0.5,1.2,1.2,1.2h0.8C7.5,23.2,8,22.7,8,22v-5.2C8,15.3,6.7,14,5.2,14H4.8v-3.4l1.3,1.3C6.2,12,6.3,12,6.4,12h4
			c0.9,0,1.6-0.7,1.6-1.6C12,9.5,11.3,8.8,10.4,8.8z M10.4,11.2H6.6L4.7,9.3c-0.2-0.2-0.4-0.2-0.6,0C4,9.4,4,9.5,4,9.6v4.8
			c0,0.2,0.2,0.4,0.4,0.4h0.8c1.1,0,2,0.9,2,2V22c0,0.2-0.2,0.4-0.4,0.4H6c-0.2,0-0.4-0.2-0.4-0.4v-4.4c0-0.7-0.5-1.2-1.2-1.2H2
			c-0.7,0-1.2-0.5-1.2-1.2v-8H5l2.3,2.3c0.1,0.1,0.2,0.1,0.3,0.1h2.8c0.4,0,0.8,0.4,0.8,0.8C11.2,10.8,10.8,11.2,10.4,11.2z"/>
	</g>
</g>
<g>
	<g>
		<path d="M23.6,6.4h-4.8c-0.1,0-0.2,0-0.3,0.1l-2.3,2.3h-2.6c-0.9,0-1.6,0.7-1.6,1.6c0,0.9,0.7,1.6,1.6,1.6h4c0.1,0,0.2,0,0.3-0.1
			l1.3-1.3V14h-0.4c-1.5,0-2.8,1.3-2.8,2.8V22c0,0.7,0.5,1.2,1.2,1.2H18c0.7,0,1.2-0.5,1.2-1.2v-4.4c0-0.2,0.2-0.4,0.4-0.4H22
			c1.1,0,2-0.9,2-2V6.8C24,6.6,23.8,6.4,23.6,6.4z M23.2,15.2c0,0.7-0.5,1.2-1.2,1.2h-2.4c-0.7,0-1.2,0.5-1.2,1.2V22
			c0,0.2-0.2,0.4-0.4,0.4h-0.8c-0.2,0-0.4-0.2-0.4-0.4v-5.2c0-1.1,0.9-2,2-2h0.8c0.2,0,0.4-0.2,0.4-0.4V9.6c0-0.2-0.2-0.4-0.4-0.4
			c-0.1,0-0.2,0-0.3,0.1l-1.9,1.9h-3.8c-0.4,0-0.8-0.4-0.8-0.8c0-0.4,0.4-0.8,0.8-0.8h2.8c0.1,0,0.2,0,0.3-0.1L19,7.2h4.2V15.2z"/>
	</g>
</g>
<g>
	<g>
		<path d="M16.8,12.8H7.2c-0.2,0-0.4,0.2-0.4,0.4c0,0.2,0.2,0.4,0.4,0.4h4.4v8.8h-1.2c-0.2,0-0.4,0.2-0.4,0.4c0,0.2,0.2,0.4,0.4,0.4
			h3.2c0.2,0,0.4-0.2,0.4-0.4c0-0.2-0.2-0.4-0.4-0.4h-1.2v-8.8h4.4c0.2,0,0.4-0.2,0.4-0.4C17.2,13,17,12.8,16.8,12.8z"/>
	</g>
</g>
<g>
	<g>
		<path d="M21.2,0.8h-2c-0.2,0-0.4,0.2-0.4,0.4v2c0,1.3,1.1,2.4,2.4,2.4s2.4-1.1,2.4-2.4C23.6,1.9,22.5,0.8,21.2,0.8z M20.4,4.6
			c-0.5-0.3-0.8-0.8-0.8-1.4V2.8c1.1,0.1,2.1,0.5,3,1.2C22.2,4.8,21.2,5,20.4,4.6z M19.6,2V1.6h1.6c0.9,0,1.6,0.7,1.6,1.5
			C21.9,2.5,20.8,2.1,19.6,2z"/>
	</g>
</g>
<g>
	<g>
		<path d="M4.8,0.8h-2c-1.3,0-2.4,1.1-2.4,2.4s1.1,2.4,2.4,2.4c1.3,0,2.4-1.1,2.4-2.4v-2C5.2,1,5,0.8,4.8,0.8z M4.4,3.2
			c0,0.9-0.7,1.6-1.6,1.6C2.2,4.8,1.7,4.5,1.4,4c0.8-0.7,1.9-1.1,3-1.2V3.2z M4.4,2c-1.2,0-2.3,0.4-3.2,1.1c0-0.9,0.7-1.5,1.6-1.5
			h1.6V2z"/>
	</g>
</g>
</svg>
