<?xml version="1.0" encoding="utf-8"?>
<!-- Generator: Adobe Illustrator 22.0.1, SVG Export Plug-In . SVG Version: 6.00 Build 0)  -->
<svg version="1.1" id="Calque_1" xmlns="http://www.w3.org/2000/svg" xmlns:xlink="http://www.w3.org/1999/xlink" x="0px" y="0px"
	 viewBox="0 0 24 24" style="enable-background:new 0 0 24 24;" xml:space="preserve">
<path d="M18.5,3.8h-2.2V3.6c0-0.9-0.7-1.6-1.6-1.6h-0.4c-0.1-1.1-1-2-2.1-2C11,0,10,0.9,10,2H9.6C8.7,2,8,2.7,8,3.6v0.2H5.7
	c-1.3,0-2.2,1-2.2,2.3v15.6c0,1.2,1,2.3,2.2,2.3h12.7c1.2,0,2.3-1,2.2-2.3c0,0,0,0,0,0V6.1C20.7,4.8,19.7,3.8,18.5,3.8z M12.1,1.1
	c0.5,0,1,0.4,1.1,1H11C11.1,1.5,11.6,1.1,12.1,1.1z M9,3.6c0-0.3,0.2-0.5,0.5-0.5h5.1c0.3,0,0.5,0.2,0.5,0.5v2.1H9V3.6z M19.7,21.7
	c0,0.7-0.5,1.2-1.2,1.2c0,0,0,0,0,0H5.7c-0.7,0-1.2-0.5-1.2-1.2V6.1c0-0.7,0.5-1.2,1.2-1.2H8v1.4c0,0.3,0.2,0.5,0.5,0.5h0h7.2
	c0.1,0,0.3,0,0.4-0.1c0.1-0.1,0.2-0.2,0.2-0.4c0,0,0,0,0,0V4.9h2.2c0.7,0,1.2,0.6,1.2,1.2V21.7z"/>
<path d="M7.1,17.6H12c0.3,0,0.5-0.2,0.5-0.5c0-0.3-0.2-0.5-0.5-0.5H7.1c-0.3,0-0.5,0.2-0.5,0.5C6.5,17.3,6.8,17.6,7.1,17.6z"/>
<path d="M17.2,19.1H7.1c-0.3,0-0.5,0.2-0.5,0.5c0,0.3,0.2,0.5,0.5,0.5h10.1c0.3,0,0.5-0.2,0.5-0.5C17.7,19.3,17.4,19.1,17.2,19.1z"
	/>
<path d="M10.7,13.6c0.2,0.2,0.5,0.2,0.7,0l4.2-3.6c0.2-0.2,0.2-0.5,0.1-0.7c-0.2-0.2-0.5-0.2-0.7-0.1l0,0l-3.8,3.3l-1.7-1.8
	c-0.2-0.2-0.5-0.2-0.7,0c-0.2,0.2-0.2,0.5,0,0.7L10.7,13.6z"/>
</svg>
